<svg width="14" height="15" fill="none" xmlns="http://www.w3.org/2000/svg"><g clip-path="url(#prefix__a)" fill-rule="evenodd" clip-rule="evenodd" fill="#fff"><path d="M7 2.065a4.69 4.69 0 0 0-3.3 1.353 4.597 4.597 0 0 0-1.367 3.267c0 1.79 1.176 3.525 2.466 4.872A17.095 17.095 0 0 0 7 13.484a17.095 17.095 0 0 0 2.202-1.926c1.289-1.348 2.465-3.084 2.465-4.873 0-1.225-.492-2.4-1.367-3.267A4.69 4.69 0 0 0 7 2.065zm0 12.128-.324.48-.001-.001-.004-.003-.014-.009a5.571 5.571 0 0 1-.224-.156 18.272 18.272 0 0 1-2.481-2.152c-1.336-1.396-2.785-3.414-2.785-5.667 0-1.532.614-3 1.708-4.084A5.863 5.863 0 0 1 7 .91c1.547 0 3.03.608 4.125 1.691a5.746 5.746 0 0 1 1.708 4.084c0 2.253-1.449 4.271-2.784 5.667a18.277 18.277 0 0 1-2.658 2.275l-.048.033-.013.01-.004.002h-.002L7 14.192zm0 0 .324.48a.589.589 0 0 1-.648 0l.324-.48z"/><path d="M7 5.53a1.16 1.16 0 0 0-1.167 1.155A1.16 1.16 0 0 0 7 7.84a1.16 1.16 0 0 0 1.167-1.155A1.16 1.16 0 0 0 7 5.53zM4.667 6.685c0-1.276 1.044-2.31 2.333-2.31 1.289 0 2.333 1.034 2.333 2.31S8.29 8.995 7 8.995c-1.289 0-2.333-1.034-2.333-2.31z"/></g><defs><clipPath id="prefix__a"><path fill="#fff" transform="translate(0 .91)" d="M0 0h14v13.86H0z"/></clipPath></defs></svg>